# xmcd
#
# Track frame offsets: 
#        150
#        27210
#        46632
#        82450
#        107375
#        121307
#        137792
#        178907
#        190985
#        212392
#        243885
#
# Disc length: 3543 seconds
#
# Revision: 2
# Processed by: cddbd v1.5.2PL0 Copyright (c) Steve Scherf et al.
# Submitted via: ExactAudioCopy v1.0b3
#
DISCID=900dd50b
DTITLE=Muddy Waters - Goin' Home (live in Paris 1970)
DYEAR=1992
DGENRE=Blues
TTITLE0=Chicken Shack
TTITLE1=Carrey Shuffle
TTITLE2=After Hours
TTITLE3=Train fare Home
TTITLE4=Honey Bee
TTITLE5=Blow Wind Blow
TTITLE6=Long Distance Call
TTITLE7=Trouble No More
TTITLE8=Hoochi Coochie Man
TTITLE9=Mojo Workin'
TTITLE10=Goin' Home
EXTD=Muddy Waters: Vocals, Guitar - \nCarry Bell: Harmonica - \nJames Ma
EXTD=dison: guitar - \nSamual Lawhorn: guitar - \nPinetop Perkins: piano
EXTD=\nCalvin Johnes: bass - \nWillie Smith: drums
EXTT0=
EXTT1=
EXTT2=
EXTT3=
EXTT4=
EXTT5=
EXTT6=
EXTT7=
EXTT8=
EXTT9=
EXTT10=
PLAYORDER=
